<?xml version="1.0" encoding="utf-8"?>
<!-- Generator: Adobe Illustrator 19.2.1, SVG Export Plug-In . SVG Version: 6.00 Build 0)  -->
<svg version="1.1" id="layer" xmlns="http://www.w3.org/2000/svg" xmlns:xlink="http://www.w3.org/1999/xlink" x="0px" y="0px"
	 viewBox="0 0 652 652" style="enable-background:new 0 0 652 652;" xml:space="preserve">
<style type="text/css">
	.st0{fill-rule:evenodd;clip-rule:evenodd;fill:#ED1556;}
	.st1{fill:#ED1556;}
</style>
<g>
	<path class="st0" d="M516.2,318.4l41.9,50c4,4.8,10,8,16.9,8h45.4l-83.3-99.3c-5.1-6-12.5-9.8-20.9-9.8c-8.5,0-15.9,3.9-21,9.8
		l-83.4,99.3h45.5c6.7,0,12.7-3.2,16.8-8L516.2,318.4z"/>
	<path class="st0" d="M377.5,325.3l-42-50c-4.1-4.8-10.1-8-16.8-8h-45.5l83.4,99.3c4.9,6,12.5,9.8,20.9,9.8c8.4,0,15.9-3.9,20.9-9.8
		l83.3-99.3h-45.5c-6.8,0-12.8,3.2-16.9,8L377.5,325.3z"/>
	<path class="st0" d="M238.7,318.4l42,50c4.1,4.8,10.1,8,16.9,8H343l-83.3-99.3c-5-6-12.5-9.8-21-9.8c-8.4,0-15.9,3.9-20.9,9.8
		l-83.3,99.3H180c6.7,0,12.7-3.2,16.8-8L238.7,318.4z"/>
	<path class="st1" d="M64,267.3H20.4v81.8c0,15.1,12.2,27.3,27.3,27.3h60.2c6.8,0,12.7-3.2,16.9-8l25.4-30.3H64V267.3z"/>
</g>
</svg>
